# xmcd CD database file
#
# Track frame offsets:
#	150
#	17436
#	49346
#	66819
#	80190
#	99253
#	113851
#	138599
#	151309
#	172170
#	191130
#	208103
#	228239
#	262237
#
# Disc length: 3707 seconds
#
# Revision: 5
# Processed by: cddbd v1.5.1PL0 Copyright (c) Steve Scherf et al.
# Submitted via: CDex 1.51
#
DISCID=cb0e790e
DTITLE=Bob Marley - Legend
DYEAR=1995
DGENRE=Blues
TTITLE0=Bob Marley and the Wailers - 1
TTITLE1=Bob Marley and the Wailers - 2
TTITLE2=Bob Marley and the Wailers - 3
TTITLE3=Bob Marley and the Wailers - 4
TTITLE4=Bob Marley and the Wailers - 5
TTITLE5=Bob Marley and the Wailers - 6
TTITLE6=Bob Marley and the Wailers - 7
TTITLE7=Bob Marley and the Wailers - 8
TTITLE8=Bob Marley and the Wailers - 9
TTITLE9=Bob Marley and the Wailers - 10
TTITLE10=Bob Marley and the Wailers - 11
TTITLE11=Bob Marley and the Wailers - 12
TTITLE12=Bob Marley and the Wailers - 13
TTITLE13=Bob Marley and the Wailers - 14
EXTD=f YEAR: 1995
EXTT0=
EXTT1=
EXTT2=
EXTT3=
EXTT4=
EXTT5=
EXTT6=
EXTT7=
EXTT8=
EXTT9=
EXTT10=
EXTT11=
EXTT12=
EXTT13=
PLAYORDER=
